<svg id="High_Resolution" data-name="High Resolution" xmlns="http://www.w3.org/2000/svg" width="20" height="20" viewBox="0 0 20 20">
  <defs>
    <style>
      .cls-1 {
        fill: #7c463c;
      }

      .cls-2 {
        fill: #a8a876;
      }

      .cls-3 {
        fill: #d35e57;
      }

      .cls-4 {
        fill: #fff;
      }

      .cls-5 {
        fill: #334b69;
      }

      .cls-6 {
        fill: #b5c3c9;
      }

      .cls-7 {
        fill: #c75b50;
      }

      .cls-8 {
        fill: #c6a58f;
      }

      .cls-9 {
        fill: #d15a4d;
      }

      .cls-10 {
        fill: #299790;
      }

      .cls-11 {
        fill: #5e727c;
      }
    </style>
  </defs>
  <g>
    <g id="Outer_circle" data-name="Outer circle">
      <path class="cls-8" d="M10,19.053C4.999,19.053.931,14.984.931,9.983S4.999.914,10,.914s9.069,4.069,9.069,9.069-4.069,9.069-9.069,9.069Z"></path>
      <path class="cls-6" d="M10,1.821c2.18,0,4.23.849,5.772,2.391,1.542,1.542,2.391,3.591,2.391,5.772s-.849,4.23-2.391,5.772c-1.542,1.542-3.591,2.391-5.772,2.391s-4.23-.849-5.772-2.391c-1.542-1.542-2.391-3.591-2.391-5.772s.849-4.23,2.391-5.772c1.542-1.542,3.591-2.391,5.772-2.391M10,.007C4.49.007.024,4.474.024,9.983s4.467,9.976,9.976,9.976,9.976-4.467,9.976-9.976S15.51.007,10,.007h0Z"></path>
    </g>
    <path class="cls-4" d="M4.043,4.219h11.931v9.405s-.01.229-.052.332l-.158.344s-.114.198-.174.274l-.212.245s-.238.243-.451.41c0,0-.133.137-.626.44,0,0-.575.33-1.151.495,0,0-.425.135-1.157.307,0,0-.332.055-.885.274,0,0-.788.314-.984.543l-.062.081s-.014.022-.058.023c0,0-.035-.001-.057-.03,0,0-.021-.059-.126-.153,0,0-.193-.15-.429-.257,0,0-.591-.274-.926-.372,0,0-.156-.049-.312-.085l-.751-.179s-.417-.114-.655-.194c0,0-.333-.107-.738-.299,0,0-.156-.078-.355-.192,0,0-.294-.184-.384-.261,0,0-.26-.206-.342-.279,0,0-.162-.14-.257-.24,0,0-.175-.176-.281-.328,0,0-.094-.141-.122-.195,0,0-.105-.203-.14-.291,0,0-.048-.076-.075-.291,0,0-.01-.123-.011-.159v-.46s0-.561,0-.561v-2.388s0-5.962,0-5.962Z"></path>
    <rect class="cls-9" x="9.988" y="8.346" width="5.969" height="1.283"></rect>
    <rect class="cls-3" x="4.875" y="6.047" width=".874" height="3.531"></rect>
    <rect class="cls-3" x="6.593" y="6.047" width=".87" height="3.531"></rect>
    <rect class="cls-3" x="8.31" y="6.047" width=".87" height="3.531"></rect>
    <rect class="cls-5" x="4.026" y="4.219" width="6.005" height="1.89"></rect>
    <path class="cls-9" d="M12.353,9.647h-2.308v7.603c0-.064.15-.152.194-.177.587-.344,1.23-.591,1.893-.741h.002c.118-.027.109-.025.227-.05l-.008-6.635Z"></path>
    <rect class="cls-1" x="11.831" y="5.87" width="2.809" height="1.5"></rect>
    <rect class="cls-9" x="11.1" y="5.138" width=".731" height=".731"></rect>
    <g>
      <rect class="cls-2" x="5.716" y="11.27" width="2.758" height="2.72"></rect>
      <rect class="cls-10" x="5.716" y="13.956" width="2.758" height=".659"></rect>
      <rect class="cls-10" x="5.716" y="10.86" width="2.758" height=".412"></rect>
    </g>
    <rect class="cls-7" x="13.279" y="11.33" width="1.643" height="2.523"></rect>
    <path d="M15.974,13.509V4.219H4.043v9.288c0,.013-.007.314.071.5.126.28.177.386.316.572.273.363.781.75.88.823.848.64,1.969.896,2.788,1.083l.086.02c.267.06.615.19.833.284l.06.026c.298.128.704.301.855.513.004.031.026.056.056.064.006.002.013.002.019.002.016,0,.032-.005.045-.015h.003l.004-.006c.006-.005.011-.011.014-.018l.011-.02h0s.002-.005.003-.007h0c.177-.207.537-.378.901-.532.217-.094.565-.224.832-.284.13-.029.221-.052.346-.083.006-.002.013-.003.019-.005.789-.183,1.761-.449,2.52-1.022.099-.074.608-.46.88-.824.138-.186.189-.292.316-.572.082-.181.072-.488.071-.498ZM10.081,4.371h5.741v5.167s-3.228,0-3.228,0h-2.513v-5.167ZM9.931,4.38v5.158h-5.736v-5.167h5.736M9.136,16.675l-.059-.026c-.223-.096-.582-.231-.859-.293l-.086-.02c-.805-.184-1.909-.436-2.731-1.056-.059-.044-.584-.439-.849-.792-.129-.173-.178-.275-.298-.542-.065-.153-.059-.432-.059-.437v-3.82h5.736v7.416c-.206-.179-.526-.316-.794-.431ZM12.669,9.689h3.152v3.823c.003.078-.002.309-.058.432-.121.269-.17.37-.299.543-.26.346-.753.721-.85.793-.576.434-1.285.689-1.938.865l-.152.039c-.166.04-.281.069-.375.092-.107.025-.211.048-.311.07l-.04.009c-.278.062-.636.196-.859.293-.006.002-.011.006-.016.009-.317.134-.632.283-.842.462v-7.431h2.587Z"></path>
  </g>
  <g id="Outer_circle-2" data-name="Outer circle">
    <path class="cls-11" d="M10,.207c2.616,0,5.075,1.019,6.925,2.868,1.85,1.85,2.868,4.309,2.868,6.925s-1.019,5.075-2.868,6.925c-1.85,1.85-4.309,2.868-6.925,2.868s-5.075-1.019-6.925-2.868C1.226,15.075.207,12.616.207,10S1.226,4.925,3.075,3.075C4.925,1.226,7.384.207,10,.207M10,.007C4.481.007.007,4.481.007,10s4.474,9.993,9.993,9.993,9.993-4.474,9.993-9.993S15.519.007,10,.007h0Z"></path>
  </g>
</svg>